<?xml version="1.0" encoding="UTF-8" standalone="no"?>
<!-- Created with Inkscape (http://www.inkscape.org/) -->

<svg
   xmlns:dc="http://purl.org/dc/elements/1.1/"
   xmlns:cc="http://creativecommons.org/ns#"
   xmlns:rdf="http://www.w3.org/1999/02/22-rdf-syntax-ns#"
   xmlns:svg="http://www.w3.org/2000/svg"
   xmlns="http://www.w3.org/2000/svg"
   xmlns:sodipodi="http://sodipodi.sourceforge.net/DTD/sodipodi-0.dtd"
   xmlns:inkscape="http://www.inkscape.org/namespaces/inkscape"
   width="102.88504mm"
   height="79.009506mm"
   viewBox="0 0 364.55329 279.95494"
   id="svg4395"
   version="1.1"
   inkscape:version="0.91 r13725"
   sodipodi:docname="ddd-schema.svg">
  <defs
     id="defs4397" />
  <sodipodi:namedview
     id="base"
     pagecolor="#ffffff"
     bordercolor="#666666"
     borderopacity="1.0"
     inkscape:pageopacity="0.0"
     inkscape:pageshadow="2"
     inkscape:zoom="1.4"
     inkscape:cx="-133.45323"
     inkscape:cy="-146.52391"
     inkscape:document-units="px"
     inkscape:current-layer="layer1"
     showgrid="false"
     inkscape:window-width="1852"
     inkscape:window-height="1057"
     inkscape:window-x="60"
     inkscape:window-y="-8"
     inkscape:window-maximized="1"
     fit-margin-left="1"
     fit-margin-bottom="1"
     fit-margin-right="1"
     fit-margin-top="1" />
  <metadata
     id="metadata4400">
    <rdf:RDF>
      <cc:Work
         rdf:about="">
        <dc:format>image/svg+xml</dc:format>
        <dc:type
           rdf:resource="http://purl.org/dc/dcmitype/StillImage" />
        <dc:title></dc:title>
      </cc:Work>
    </rdf:RDF>
  </metadata>
  <g
     inkscape:label="Layer 1"
     inkscape:groupmode="layer"
     id="layer1"
     transform="translate(-109.17771,-135.25492)">
    <text
       xml:space="preserve"
       style="font-style:normal;font-weight:normal;font-size:15px;line-height:125%;font-family:sans-serif;letter-spacing:0px;word-spacing:0px;fill:#000000;fill-opacity:1;stroke:none;stroke-width:1px;stroke-linecap:butt;stroke-linejoin:miter;stroke-opacity:1"
       x="155.71429"
       y="181.64792"
       id="text4947"
       sodipodi:linespacing="125%"><tspan
         sodipodi:role="line"
         id="tspan4949"
         x="155.71429"
         y="181.64792">1. Learning</tspan><tspan
         sodipodi:role="line"
         x="155.71429"
         y="200.39792"
         id="tspan4971">Module</tspan></text>
    <text
       xml:space="preserve"
       style="font-style:normal;font-weight:normal;font-size:15px;line-height:125%;font-family:sans-serif;letter-spacing:0px;word-spacing:0px;fill:#000000;fill-opacity:1;stroke:none;stroke-width:1px;stroke-linecap:butt;stroke-linejoin:miter;stroke-opacity:1"
       x="334.28571"
       y="178.79077"
       id="text4951"
       sodipodi:linespacing="125%"><tspan
         sodipodi:role="line"
         id="tspan4953"
         x="334.28571"
         y="178.79077">2. Content</tspan><tspan
         sodipodi:role="line"
         x="334.28571"
         y="197.54077"
         id="tspan4967">Module</tspan><tspan
         sodipodi:role="line"
         x="334.28571"
         y="216.29077"
         id="tspan4955" /></text>
    <text
       xml:space="preserve"
       style="font-style:normal;font-weight:normal;font-size:15px;line-height:125%;font-family:sans-serif;letter-spacing:0px;word-spacing:0px;fill:#000000;fill-opacity:1;stroke:none;stroke-width:1px;stroke-linecap:butt;stroke-linejoin:miter;stroke-opacity:1"
       x="316.42856"
       y="286.64792"
       id="text4957"
       sodipodi:linespacing="125%"><tspan
         sodipodi:role="line"
         id="tspan4959"
         x="316.42856"
         y="286.64792">4. Administration</tspan><tspan
         sodipodi:role="line"
         x="316.42856"
         y="305.39792"
         id="tspan4965">Module</tspan></text>
    <text
       xml:space="preserve"
       style="font-style:normal;font-weight:normal;font-size:15px;line-height:125%;font-family:sans-serif;letter-spacing:0px;word-spacing:0px;fill:#000000;fill-opacity:1;stroke:none;stroke-width:1px;stroke-linecap:butt;stroke-linejoin:miter;stroke-opacity:1"
       x="136.42857"
       y="285.21933"
       id="text4961"
       sodipodi:linespacing="125%"><tspan
         sodipodi:role="line"
         id="tspan4963"
         x="136.42857"
         y="285.21933">3. User Profile</tspan><tspan
         sodipodi:role="line"
         x="136.42857"
         y="303.96933"
         id="tspan4969">Module</tspan></text>
    <path
       style="opacity:1;fill:#000000;fill-opacity:1;stroke:#000000"
       id="path4977"
       d="m 194.65991,141.14099 c -4.14389,-0.005 -8.28777,-0.006 -12.43166,-0.007 -5.83649,-4.6e-4 -11.67297,-7.8e-4 -17.50946,5.6e-4 -3.41588,-0.0123 -6.81429,0.36593 -10.06592,1.45722 -1.14341,0.38374 -3.35612,1.38738 -4.47909,1.88217 -3.86819,1.83211 -7.60993,3.86562 -10.95157,6.54827 -3.10694,2.53527 -5.33033,5.8556 -7.49805,9.17659 -2.05667,3.24119 -3.02352,7.00374 -3.68041,10.74668 -0.46702,3.5002 -0.74598,7.05881 -0.4414,10.58224 0.49664,4.35905 3.39826,7.671 6.05324,10.95196 2.6039,2.75847 4.90602,5.79873 7.52808,8.5397 1.82737,1.91024 2.39768,2.29194 4.43289,3.99827 4.79435,3.80306 10.20179,6.52947 15.76497,8.99045 7.2687,3.20524 14.9622,5.22858 22.65346,7.12039 9.36979,1.9989 18.87837,3.20237 28.41983,3.97672 6.1357,0.44757 12.2859,0.61195 18.43608,0.65529 3.3602,0.13681 6.70183,-0.21878 10.04817,-0.45183 3.04371,-0.48646 6.05124,-1.65027 8.59453,-3.40415 2.4317,-1.75496 4.7104,-3.70919 6.73791,-5.91894 2.24343,-2.60788 3.44576,-5.77429 4.38897,-9.03099 0.88197,-3.52185 1.05411,-7.15416 1.15781,-10.7662 0.0635,-3.39356 0.0421,-6.78798 0.0319,-10.18191 0.0689,-3.12611 -1.22239,-5.84052 -2.66841,-8.52108 -1.73785,-4.09233 -4.40068,-7.69076 -6.83925,-11.38178 -2.32571,-3.52744 -4.80515,-6.97185 -7.71894,-10.03883 -2.41862,-2.71588 -5.47105,-4.72167 -8.38504,-6.8541 -3.12221,-2.31325 -6.70873,-3.71149 -10.33536,-5.00396 -3.97654,-1.55462 -8.20307,-1.93005 -12.42252,-2.179 -5.17144,-0.22232 -10.34901,-0.20402 -15.52402,-0.20489 -6.89402,0.007 -13.78804,0.0134 -20.68206,0.019 0,0 0.54588,-0.39666 0.54588,-0.39666 l 0,0 c 6.89599,-0.004 13.79197,-0.0125 20.68795,-0.0233 5.17686,-0.003 10.35624,-0.0179 15.52948,0.20593 4.22623,0.25026 8.45765,0.63113 12.43952,2.19101 3.63043,1.29828 7.22101,2.70157 10.3456,5.02116 2.91803,2.13413 5.97423,4.14192 8.39315,6.86374 2.91287,3.07275 5.39106,6.52263 7.71839,10.05322 2.44232,3.69086 5.10471,7.29181 6.8507,11.38225 1.45381,2.68834 2.75148,5.41441 2.68497,8.55107 0.009,3.39489 0.0306,6.79025 -0.0327,10.18477 -0.10193,3.61709 -0.27427,7.2538 -1.15025,10.782 -0.93823,3.26366 -2.13627,6.43751 -4.37175,9.05837 -2.02369,2.21769 -4.30477,4.17237 -6.73335,5.93663 -3.0235,1.88086 -6.21276,3.61782 -9.8034,4.06965 -3.34545,0.23394 -6.6867,0.58454 -10.046,0.44362 -6.1442,-0.0495 -12.28801,-0.22343 -18.41742,-0.67486 -9.54329,-0.78022 -19.05394,-1.9872 -28.42615,-3.98524 -7.69769,-1.89232 -15.39729,-3.91683 -22.67324,-7.1212 -5.56899,-2.4632 -10.97753,-5.1987 -15.77598,-9.0061 -2.03038,-1.70309 -2.61701,-2.09881 -4.44003,-4.00572 -2.62185,-2.74249 -4.92581,-5.78313 -7.53238,-8.54064 -2.66599,-3.28883 -5.57705,-6.61244 -6.08107,-10.98331 -0.3113,-3.52823 -0.0298,-7.09312 0.43434,-10.59887 0.65111,-3.75027 1.61932,-7.5224 3.67073,-10.7731 2.16826,-3.32404 4.38397,-6.65408 7.48925,-9.19651 3.68782,-2.97357 7.884,-5.16503 12.13199,-7.23271 1.1694,-0.51365 3.28929,-1.47509 4.48376,-1.87289 3.25612,-1.08439 6.65725,-1.45533 10.07517,-1.4414 5.83597,10e-4 11.67195,10e-4 17.50792,5.6e-4 4.15036,-10e-4 8.30072,-0.002 12.45107,-0.007 0,0 -0.57081,0.41471 -0.57081,0.41471 z"
       inkscape:connector-curvature="0" />
    <path
       style="opacity:1;fill:#000000;fill-opacity:1;stroke:#000000"
       id="path4983"
       d="m 351.25569,141.76631 c -3.17438,-0.40296 -6.37857,-0.47303 -9.57373,-0.54988 -3.00723,-0.0626 -6.06142,-0.0457 -9.02678,0.53698 -1.70285,0.33462 -3.21868,0.84552 -4.87567,1.35185 -4.47429,1.21147 -8.37728,3.64189 -12.06906,6.36499 -2.90174,2.29532 -5.61779,4.80818 -8.12639,7.52569 -2.18339,2.44664 -4.20957,4.95707 -5.75154,7.85642 -1.51936,2.99518 -2.40427,6.23494 -3.03894,9.51658 -0.47361,2.69636 -0.58286,5.4316 -0.63199,8.16242 -0.003,2.65559 1.07747,4.97885 2.42058,7.19993 1.60403,2.78345 3.65365,5.22624 5.87624,7.52783 2.16423,2.43166 4.85663,4.21747 7.50893,6.05526 3.43322,2.05384 7.01318,3.85924 10.57863,5.67568 5.34068,2.26741 10.59675,4.7071 15.98402,6.86273 5.51025,1.97969 11.06477,3.81839 16.75218,5.21332 5.57071,1.30411 11.25924,1.82622 16.94141,2.34635 6.42122,0.77853 12.87263,1.18013 19.33332,1.42155 5.41817,0.17239 10.8395,0.19001 16.2599,0.19627 3.4274,-0.0537 6.86121,0.0992 10.28441,-0.099 2.93483,-0.46967 5.65625,-1.59795 8.32254,-2.86019 2.6436,-1.43241 5.30636,-2.79773 7.70104,-4.62308 2.18535,-1.8597 3.56636,-4.3439 4.79999,-6.88349 1.28938,-2.94825 2.22616,-6.00169 2.90219,-9.14188 0.56199,-2.85031 0.74677,-5.75222 0.83996,-8.64981 0.0535,-2.42606 0.0379,-4.85294 0.0334,-7.27939 -0.0404,-2.53699 0.072,-5.07766 -0.0953,-7.61036 -0.16059,-3.55266 -2.25059,-6.5027 -4.20735,-9.32855 -1.94748,-2.91029 -4.17503,-5.45298 -6.8959,-7.64791 -3.47655,-2.47974 -7.28794,-4.46754 -11.0765,-6.42625 -3.32506,-1.65547 -6.79966,-2.97558 -10.24587,-4.35157 -2.89506,-1.11606 -5.93709,-1.77106 -8.86483,-2.77643 -2.11501,-0.86763 -4.29035,-1.47052 -6.55351,-1.76768 -2.35898,-0.48548 -4.75869,-0.64721 -7.15846,-0.76621 -2.88962,-0.0829 -5.69923,-0.90112 -8.51814,-1.47969 -2.48709,-0.39311 -4.98169,-0.74288 -7.47845,-1.0739 -2.11836,-0.2609 -4.20084,-0.70142 -6.32661,-0.91816 -1.82986,-0.13852 -3.62204,-0.53874 -5.44717,-0.73121 -2.06085,-0.40692 -4.13936,-0.64583 -6.23394,-0.77906 -2.32991,-0.11905 -4.66363,-0.12 -6.9959,-0.13041 0,0 0.5618,-0.40783 0.5618,-0.40783 l 0,0 c 2.33496,0.008 4.67144,0.008 7.00396,0.12976 2.09593,0.13547 4.17467,0.38002 6.2381,0.77971 1.82402,0.19553 3.616,0.5949 5.44554,0.73207 2.12521,0.21998 4.20794,0.66111 6.32647,0.92082 2.49683,0.33291 4.99248,0.67917 7.47874,1.07973 2.81637,0.58091 5.62475,1.39118 8.51308,1.47019 2.40218,0.12119 4.80342,0.2866 7.1655,0.76826 2.26417,0.30447 4.43945,0.91558 6.55647,1.78247 2.93019,0.99982 5.97022,1.66228 8.86495,2.78058 3.44678,1.37793 6.92157,2.7011 10.24679,4.35906 3.79126,1.96288 7.60348,3.95693 11.08458,6.4376 2.72797,2.19852 4.95644,4.74663 6.90444,7.66591 1.96226,2.83382 4.06763,5.7947 4.23339,9.35697 0.17004,2.53388 0.0583,5.07587 0.0977,7.61417 0.006,2.42716 0.0203,4.85473 -0.0323,7.28152 -0.0929,2.90189 -0.27976,5.80778 -0.83827,8.66292 -0.67279,3.14556 -1.60892,6.20192 -2.89445,9.1567 -1.23135,2.54629 -2.60569,5.03889 -4.78562,6.91273 -2.75003,2.11115 -5.87558,3.63177 -8.89381,5.31508 -2.67021,1.26066 -5.39884,2.38623 -8.3397,2.83956 -3.42226,0.18952 -6.85418,0.044 -10.28027,0.091 -5.41802,-0.0103 -10.83696,-0.0296 -16.25268,-0.20455 -6.46215,-0.24478 -12.91474,-0.64822 -19.33796,-1.4227 -5.68506,-0.51894 -11.37572,-1.0479 -16.94866,-2.35372 -5.68878,-1.39761 -11.24292,-3.24336 -16.75521,-5.22279 -5.38959,-2.1571 -10.64878,-4.59751 -15.9926,-6.86443 -3.57071,-1.81577 -7.15745,-3.61883 -10.59324,-5.6774 -2.65435,-1.84197 -5.34737,-3.63371 -7.51433,-6.06805 -2.22498,-2.30701 -4.27893,-4.75163 -5.88553,-7.54038 -1.35245,-2.23012 -2.441,-4.56481 -2.44199,-7.23298 0.0484,-2.73508 0.15773,-5.47421 0.63029,-8.17504 0.63226,-3.28733 1.51532,-6.5324 3.03033,-9.53535 1.53589,-2.90867 3.56025,-5.42275 5.74668,-7.87379 2.50652,-2.72331 5.22326,-5.23868 8.1245,-7.53909 4.04083,-2.99148 8.37769,-5.65832 13.25243,-7.03838 1.68355,-0.51225 3.1556,-1.0088 4.88495,-1.3454 2.96909,-0.57791 6.02548,-0.58968 9.03553,-0.52943 3.2012,0.0768 6.41097,0.14773 9.59182,0.54709 0,0 -0.57817,0.40766 -0.57817,0.40766 z"
       inkscape:connector-curvature="0" />
    <path
       style="opacity:1;fill:#000000;fill-opacity:1;stroke:#000000"
       id="path4989"
       d="m 145.45924,247.56985 c -2.8695,-0.11946 -5.62059,0.66562 -8.24845,1.73788 -3.28273,1.29803 -6.07683,3.50011 -8.6301,5.89449 -2.80054,2.60094 -5.10463,5.65513 -7.29534,8.76916 -1.73634,2.97105 -3.39028,5.9875 -4.52759,9.24071 -0.81359,3.27681 -1.42244,6.60783 -2.0399,9.92895 -0.52263,2.84756 -0.71205,5.73966 -0.80621,8.62858 0.0462,1.53343 -0.19121,3.10021 0.0413,4.62724 0.0934,0.6132 0.47624,1.86981 0.64452,2.45473 0.92099,2.77421 2.97491,4.83427 5.01424,6.83147 2.9222,2.65763 6.46258,4.40216 10.01315,6.04726 5.09603,1.91996 10.28975,3.53266 15.45683,5.24784 5.40296,1.89147 10.8752,3.54282 16.40454,5.01542 5.01963,1.34366 10.1927,1.94843 15.31159,2.78699 6.60336,1.11372 13.3025,1.36055 19.98293,1.54762 6.77824,0.14761 13.55852,0.14077 20.33799,0.13864 6.11651,0.3202 12.10871,-0.74975 18.05881,-2.01181 4.75825,-1.31486 9.74626,-2.4185 13.83504,-5.31017 3.64615,-2.37508 6.01386,-5.29257 8.09956,-9.05524 1.80663,-3.22342 2.648,-6.79489 3.08747,-10.4292 0.26875,-3.08113 0.25007,-6.17743 0.24208,-9.26739 -0.26217,-2.8015 -1.03625,-5.52046 -2.41001,-7.97371 -1.57381,-2.57976 -3.84288,-4.53105 -6.07462,-6.5094 -2.91011,-2.42206 -6.19117,-4.31603 -9.55644,-6.02209 -4.24078,-2.1359 -8.73101,-3.69834 -13.0969,-5.54441 -4.1521,-1.77106 -8.15918,-3.86721 -12.2959,-5.67186 -2.9952,-1.32156 -6.10474,-2.36123 -9.23083,-3.32442 -3.53873,-1.0527 -7.13305,-1.90398 -10.6841,-2.91877 -4.20635,-1.07849 -8.52405,-1.69173 -12.83317,-2.19295 -4.40159,-0.80483 -8.77121,-1.74409 -13.19733,-2.42233 -4.50226,-0.68671 -9.05768,-0.82972 -13.60298,-0.92978 -4.15669,-0.12282 -8.30616,-0.0794 -12.44206,0.3669 -2.30307,0.11637 -4.47117,0.7283 -6.62712,1.49032 0,0 0.55001,-0.42877 0.55001,-0.42877 l 0,0 c 2.15814,-0.75588 4.33085,-1.35546 6.63268,-1.47432 4.13726,-0.44011 8.28798,-0.48099 12.44539,-0.35829 4.54648,0.10337 9.10325,0.24709 13.60616,0.93849 4.42611,0.67949 8.79558,1.62069 13.19862,2.41838 4.31146,0.50435 8.63123,1.1204 12.83959,2.20211 3.55331,1.01313 7.1501,1.86185 10.69018,2.91637 3.12691,0.96454 6.23673,2.00859 9.23175,3.33328 4.13255,1.81068 8.13826,3.90638 12.29032,5.67456 4.36805,1.84578 8.8602,3.40866 13.10198,5.54678 3.37078,1.70925 6.65753,3.6062 9.57187,6.03328 2.23802,1.98319 4.50993,3.9427 6.0892,6.52793 1.38032,2.46309 2.15398,5.1937 2.42591,8.00547 0.008,3.09284 0.0231,6.19174 -0.24031,9.27604 -0.43591,3.64196 -1.2766,7.22315 -3.08084,10.45561 -2.08014,3.77296 -4.43921,6.704 -8.08952,9.08669 -0.83979,0.54304 -1.65411,1.12765 -2.51936,1.62911 -3.83524,2.22272 -8.29286,3.11715 -12.49799,4.34288 -5.95285,1.25967 -11.94789,2.31995 -18.06612,1.99958 -6.7782,5.4e-4 -13.55722,0.006 -20.33416,-0.14377 -6.68483,-0.18755 -13.38831,-0.4347 -19.99601,-1.54944 -5.12127,-0.83492 -10.29626,-1.44128 -15.31614,-2.79199 -5.52982,-1.47151 -11.00012,-3.13097 -16.40349,-5.02111 -5.17121,-1.71694 -10.37232,-3.32242 -15.47146,-5.2474 -3.55721,-1.64937 -7.10097,-3.40282 -10.02906,-6.06514 -2.04741,-2.00614 -4.11209,-4.07377 -5.03617,-6.86028 -0.16689,-0.57814 -0.5583,-1.86254 -0.65219,-2.46741 -0.23733,-1.52903 8.9e-4,-3.09814 -0.044,-4.63389 0.0932,-2.89274 0.28449,-5.78872 0.80596,-8.6402 0.61546,-3.32415 1.23096,-6.65601 2.03432,-9.93798 1.13091,-3.26161 2.79204,-6.27883 4.52247,-9.25956 2.19111,-3.11638 4.4897,-6.17791 7.29038,-8.78232 2.87635,-2.71619 6.13341,-5.08213 9.81545,-6.58643 2.64042,-1.06593 5.39677,-1.84249 8.27511,-1.72422 0,0 -0.5716,0.41529 -0.5716,0.41529 z"
       inkscape:connector-curvature="0" />
    <path
       style="opacity:1;fill:#000000;fill-opacity:1;stroke:#000000"
       id="path4991"
       d="m 324.03068,256.85556 c -3.4694,-0.005 -6.9388,-0.004 -10.4082,-0.004 -3.92936,0.0545 -6.93095,1.10762 -10.27842,3.0683 -3.22709,2.1558 -5.72249,5.15248 -7.93319,8.29886 -2.2625,3.17918 -3.78288,6.6699 -4.57502,10.47346 -0.51419,3.54135 -0.65275,7.14092 -0.48801,10.71359 0.21213,4.28323 2.58463,7.71819 5.11484,10.9946 2.87057,4.08449 6.64688,7.36751 10.40337,10.60268 4.60451,3.79583 10.09625,6.2035 15.54547,8.50704 4.89018,1.90869 10.03444,2.97983 15.19207,3.85795 4.43942,0.72922 8.9432,0.84387 13.43137,0.92338 4.8342,0.0524 9.66885,0.0315 14.50324,0.0279 7.66444,-0.006 15.32889,-0.007 22.99334,-0.01 7.31535,-0.009 14.6281,0.1195 21.93437,-0.29267 6.73014,-0.62117 13.33565,-2.1051 19.92638,-3.54631 4.45359,-1.0208 8.8589,-2.21641 13.20373,-3.62531 3.38886,-0.9701 6.69249,-2.1218 9.8921,-3.59893 2.93426,-1.3702 5.5301,-3.27435 8.10728,-5.20871 1.47964,-1.16861 2.99017,-2.40583 3.96372,-4.05315 0.14071,-0.2381 1.15401,-2.39108 1.21412,-2.5178 1.62972,-3.29271 2.34714,-6.81931 2.81266,-10.43121 0.3587,-3.40507 0.3969,-6.83237 0.41411,-10.25286 -0.19193,-2.00973 0.28643,-4.12616 -0.0999,-6.12126 -0.0824,-0.42575 -0.2488,-0.83086 -0.37321,-1.24628 -1.04093,-2.76944 -2.997,-4.8003 -5.49673,-6.29942 -2.98151,-1.75511 -6.2539,-2.91545 -9.50322,-4.06335 -2.9197,-1.19212 -5.83158,-2.30456 -8.93361,-2.90625 -2.99745,-0.96645 -6.12569,-1.37422 -9.22941,-1.83856 -3.52944,-0.43188 -7.07498,-0.65525 -10.60145,-1.12223 -3.00504,-0.3312 -5.93857,-1.08635 -8.93484,-1.4726 -2.41563,-0.1643 -4.8212,-0.36778 -7.22949,-0.62296 -2.48452,-0.24206 -4.94391,-0.6577 -7.43173,-0.88028 -2.56303,-0.12824 -5.10909,-0.44691 -7.66689,-0.64939 -2.84659,-0.0893 -5.66706,-0.48006 -8.50339,-0.70511 -2.56457,-0.35231 -5.12567,-0.68821 -7.70881,-0.86783 -2.04235,-0.1316 -4.08947,-0.13433 -6.13508,-0.14006 -2.07794,-0.001 -4.15588,0.003 -6.23382,0.005 -2.2911,0.001 -4.5822,0.003 -6.8733,0.002 -2.53175,-0.001 -5.06349,-5e-5 -7.59524,8e-5 -2.12627,6.1e-4 -4.25254,3.9e-4 -6.37881,1.6e-4 -2.33877,-0.001 -4.67753,1.3e-4 -7.0163,-1.3e-4 -2.0649,-1.1e-4 -4.12981,3.2e-4 -6.19471,8.1e-4 -1.72949,-2.7e-4 -3.45898,1.3e-4 -5.18847,3.5e-4 -2.632,6.6e-4 -5.26231,-0.0378 -7.89193,0.0831 0,0 0.55877,-0.40987 0.55877,-0.40987 l 0,0 c 2.63357,-0.11883 5.26791,-0.0862 7.90378,-0.0878 1.72918,2.2e-4 3.45835,6.2e-4 5.18752,3.5e-4 2.06416,4.9e-4 4.12832,9.2e-4 6.19249,8.1e-4 2.33888,-2.6e-4 4.67775,9.4e-4 7.01663,-1.2e-4 2.1261,-2.2e-4 4.2522,-4.2e-4 6.37829,2.2e-4 2.53175,1.7e-4 5.06349,10e-4 7.59523,-9e-5 2.29126,-8.1e-4 4.58252,9e-5 6.87378,-0.003 2.07794,-0.002 4.15588,-0.007 6.23382,-0.004 2.04649,0.006 4.09456,0.007 6.13757,0.14408 2.58196,0.18322 5.14163,0.52291 7.70581,0.87076 2.83641,0.2257 5.65741,0.61312 8.50403,0.70465 2.55839,0.20399 5.10597,0.51646 7.66952,0.64842 2.48754,0.22569 4.94726,0.64166 7.43222,0.8813 2.40852,0.25577 4.8152,0.45196 7.23041,0.62431 2.99373,0.39123 5.92509,1.14903 8.9289,1.47697 3.52744,0.46235 7.07366,0.68682 10.60309,1.12257 3.1055,0.46563 6.23413,0.87628 9.23478,1.83856 3.10167,0.60958 6.01359,1.72803 8.93565,2.91724 3.25399,1.14905 6.52751,2.31691 9.51368,4.07329 2.50905,1.51556 4.47605,3.55792 5.5249,6.34247 0.12732,0.41955 0.29725,0.82847 0.38194,1.25865 0.3929,1.9958 -0.0933,4.11704 0.0996,6.12803 -0.0202,3.42379 -0.0592,6.85422 -0.41503,10.26285 -0.46495,3.61643 -1.17082,7.1501 -2.7994,10.44908 -0.022,0.0466 -1.10746,2.35607 -1.2072,2.5272 -0.96578,1.65687 -2.47543,2.90229 -3.9571,4.07469 -2.94204,2.21115 -5.96362,4.30555 -9.29696,5.89698 -3.20151,1.47395 -6.50843,2.62005 -9.89687,3.59224 -4.34315,1.40647 -8.74811,2.59578 -13.19976,3.61374 -6.59073,1.43711 -13.19621,2.91799 -19.92616,3.53272 -7.30609,0.40852 -14.61852,0.2808 -21.93353,0.28741 -7.66727,8.2e-4 -15.33454,0.004 -23.0018,0.016 -4.83689,0.008 -9.67409,0.0324 -14.51077,-0.0241 -4.49012,-0.0806 -8.99599,-0.19703 -13.43653,-0.93247 -5.15941,-0.88281 -10.30481,-1.95844 -15.19484,-3.8752 -5.45464,-2.30895 -10.95148,-4.72107 -15.56086,-8.52233 -3.76015,-3.23805 -7.54042,-6.52456 -10.41405,-10.61243 -2.53715,-3.28748 -4.92082,-6.73232 -5.14112,-11.02837 -0.1662,-3.57793 -0.0272,-7.18205 0.48095,-10.72952 0.78601,-3.81281 2.30277,-7.31226 4.56633,-10.50048 2.20532,-3.15365 4.69968,-6.15439 7.91888,-8.32539 3.90355,-2.26167 6.84481,-3.6879 11.4863,-3.72409 3.47325,1.8e-4 6.9465,8.1e-4 10.41975,-0.004 0,0 -0.57159,0.41529 -0.57159,0.41529 z"
       inkscape:connector-curvature="0" />
    <text
       xml:space="preserve"
       style="font-style:normal;font-weight:normal;font-size:15px;line-height:125%;font-family:sans-serif;letter-spacing:0px;word-spacing:0px;fill:#000000;fill-opacity:1;stroke:none;stroke-width:1px;stroke-linecap:butt;stroke-linejoin:miter;stroke-opacity:1"
       x="241.42857"
       y="371.64792"
       id="text4820"
       sodipodi:linespacing="125%"><tspan
         sodipodi:role="line"
         id="tspan4822"
         x="241.42857"
         y="371.64792">5. Translation</tspan><tspan
         sodipodi:role="line"
         x="241.42857"
         y="390.39792"
         id="tspan4824">Module</tspan><tspan
         sodipodi:role="line"
         x="241.42857"
         y="409.14792"
         id="tspan4826" /></text>
    <path
       style="opacity:1;fill:#000000;fill-opacity:1;stroke:#000000"
       id="path4848"
       d="m 254.82712,343.19485 c -2.93986,-0.3673 -5.90599,-0.45996 -8.86477,-0.54865 -2.46267,0.006 -4.93882,-0.20662 -7.39596,0.006 -2.2423,0.0914 -4.11225,1.18637 -6.01899,2.24066 -2.21656,1.34856 -4.39323,2.75807 -6.46736,4.31956 -2.02377,1.76329 -4.05389,3.52522 -5.91225,5.46415 -2.07296,2.06893 -3.4885,4.62386 -4.84215,7.19016 -1.43971,3.05161 -2.1684,6.31535 -2.58446,9.64231 -0.26755,2.41809 -0.30405,4.85189 -0.31163,7.28202 -0.1146,2.20956 0.0658,4.34318 0.62697,6.48082 0.88468,3.30652 2.94723,5.92986 5.09203,8.50671 2.71266,3.56299 5.64304,5.64559 9.56022,7.73082 4.68495,2.57349 9.80813,4.04667 14.86683,5.66466 4.8411,1.57322 9.82479,2.5855 14.87337,3.17803 4.37858,0.42015 8.78268,0.40082 13.17663,0.41141 4.52283,-10e-4 9.04564,-0.017 13.56846,-0.0238 4.70089,-0.008 9.40179,-0.007 14.10269,-0.007 4.41678,8.4e-4 8.83357,-0.002 13.25036,-0.003 3.33143,0.067 6.65094,-0.003 9.95926,-0.41244 4.30748,-0.4142 8.48785,-1.5637 12.74532,-2.29341 3.11823,-0.45425 6.27971,-0.65859 9.30522,-1.58378 2.55377,-0.92934 4.93324,-2.27238 7.31641,-3.56818 2.37682,-1.00068 4.54664,-2.30469 6.58104,-3.87671 2.18729,-1.60861 3.80299,-3.80991 5.23012,-6.08926 1.45132,-2.18901 3.08321,-4.24964 4.52482,-6.44374 1.13361,-1.66446 2.23561,-3.31396 2.79525,-5.26233 0.41386,-1.87379 0.40599,-3.80578 0.42171,-5.71498 0.005,-2.63055 -0.008,-5.2611 -0.0161,-7.89164 0.20535,-2.47994 -0.62246,-4.6226 -1.86916,-6.7047 -1.46651,-2.04143 -3.39677,-3.73407 -5.56604,-4.99294 -1.91094,-1.08939 -3.88425,-2.04112 -5.93581,-2.83274 -2.33825,-0.74878 -4.78172,-1.12446 -7.20514,-1.48777 -2.3153,-0.28629 -4.64317,-0.37016 -6.9607,-0.63433 -2.14282,-0.25671 -4.29237,-0.36987 -6.428,-0.68243 -2.2766,-0.30144 -4.55929,-0.49571 -6.81848,-0.921 -2.57931,-0.59272 -5.21316,-0.82148 -7.84933,-0.95878 -3.95302,-0.43308 -7.8784,-1.22002 -11.77506,-2.02426 -4.15004,-0.8736 -8.37142,-1.27112 -12.55636,-1.9335 -5.19643,-0.92283 -10.42626,-1.61771 -15.68226,-2.08633 -4.48054,-0.48875 -8.86688,-1.54692 -13.3262,-2.18002 -2.53756,-0.34298 -5.09718,-0.42452 -7.65413,-0.45595 -2.00736,-0.0116 -4.01477,0.001 -6.02214,0.005 -2.15825,0.005 -4.3165,0.007 -6.47476,0.008 -1.63387,-0.0203 -3.24986,-0.0521 -4.86504,0.20902 0,0 0.56435,-0.42383 0.56435,-0.42383 l 0,0 c 1.61663,-0.25484 3.23562,-0.215 4.86958,-0.19854 2.15763,-4.7e-4 4.31526,-0.002 6.47289,-0.007 2.00779,-0.006 4.01564,-0.0192 6.02343,-0.005 2.55711,0.0339 5.11675,0.11924 7.65387,0.46722 4.4545,0.64016 8.83669,1.70229 13.3146,2.18379 5.25817,0.47172 10.49038,1.16828 15.69002,2.08652 4.18558,0.6613 8.40814,1.05776 12.55779,1.9364 3.89702,0.80103 7.82206,1.5922 11.77692,2.01015 2.63836,0.14007 5.27367,0.37308 7.85522,0.96594 2.25998,0.42035 4.54321,0.61183 6.81929,0.91701 2.13462,0.31071 4.28401,0.42083 6.42507,0.68178 2.31798,0.26257 4.64726,0.34236 6.96207,0.63647 2.42675,0.36676 4.87461,0.74101 7.214,1.50033 2.05362,0.79548 4.03063,1.74698 5.94265,2.84157 2.17373,1.27289 4.11207,2.97167 5.58379,5.02342 1.25335,2.0909 2.09192,4.24647 1.88672,6.73797 0.006,2.63041 0.0185,5.26082 0.0185,7.89125 -0.0136,1.91434 -0.006,3.85081 -0.41174,5.73115 -0.54914,1.95898 -1.6493,3.6144 -2.78926,5.28301 -1.43533,2.19907 -3.07588,4.25438 -4.52826,6.4436 -1.42253,2.28451 -3.03295,4.49598 -5.21795,6.11092 -2.3868,1.85746 -5.01707,3.34031 -7.77566,4.57481 -2.38613,1.29374 -4.76626,2.64108 -7.32695,3.5584 -3.02749,0.90939 -6.1855,1.11374 -9.3014,1.57 -4.25897,0.73312 -8.44236,1.87926 -12.75198,2.29426 -3.31017,0.40284 -6.63108,0.47301 -9.96366,0.40514 -4.41422,-9.5e-4 -8.82844,-0.004 -13.24266,-0.003 -4.70179,8.3e-4 -9.40358,0.003 -14.10537,0.009 -4.52274,0.008 -9.04546,0.0226 -13.5682,0.0233 -4.39602,-0.0109 -8.80247,0.0102 -13.18267,-0.41684 -5.04912,-0.59955 -10.03334,-1.61898 -14.87548,-3.1926 -5.0629,-1.61778 -10.1881,-3.09719 -14.87592,-5.67338 -3.92593,-2.091 -6.86297,-4.17654 -9.57984,-7.75 -2.15159,-2.58413 -4.222,-5.21441 -5.1138,-8.52927 -0.56594,-2.14207 -0.75603,-4.27979 -0.63861,-6.49539 0.009,-2.43374 0.0464,-4.87116 0.31439,-7.29283 0.41387,-3.33387 1.13986,-6.60381 2.57398,-9.66513 1.35167,-2.5696 2.75956,-5.13303 4.83122,-7.20655 1.85458,-1.94515 3.88977,-3.70382 5.9089,-5.47498 2.43894,-1.84402 5.02154,-3.47611 7.66102,-5.01738 1.91173,-1.05663 3.79277,-2.13241 6.0392,-2.21891 2.45789,-0.19922 4.93234,0.006 7.39499,0.005 2.96339,0.0908 5.93372,0.18532 8.87873,0.54832 0,0 -0.57816,0.40764 -0.57816,0.40764 z"
       inkscape:connector-curvature="0" />
  </g>
</svg>
